<svg xmlns="http://www.w3.org/2000/svg" viewBox="0 0 1200 630">
  <rect width="1200" height="630" fill="#f7fbf8"/>
  <path d="M0 120h1200M0 240h1200M0 360h1200M0 480h1200M240 0v630M480 0v630M720 0v630M960 0v630" stroke="#d7ddd8" stroke-width="2"/>
  <rect x="76" y="78" width="1040" height="440" rx="10" fill="#ffffff" stroke="#151a18" stroke-width="8"/>
  <rect x="96" y="98" width="1040" height="440" rx="10" fill="#00b894" stroke="#151a18" stroke-width="8"/>
  <rect x="136" y="138" width="620" height="360" rx="8" fill="#f7fbf8" stroke="#151a18" stroke-width="6"/>
  <circle cx="176" cy="174" r="12" fill="#f7fbf8" stroke="#151a18" stroke-width="6"/>
  <circle cx="216" cy="174" r="12" fill="#f7fbf8" stroke="#151a18" stroke-width="6"/>
  <circle cx="256" cy="174" r="12" fill="#f7fbf8" stroke="#151a18" stroke-width="6"/>
  <text x="176" y="270" font-family="Arial, sans-serif" font-size="50" font-weight="900" fill="#151a18">Link to QR Code</text>
  <text x="178" y="338" font-family="Arial, sans-serif" font-size="28" font-weight="800" fill="#4f5a55">Generate QR dari URL.</text>
  <text x="178" y="386" font-family="Arial, sans-serif" font-size="28" font-weight="800" fill="#4f5a55">Download PNG atau SVG.</text>
  <text x="178" y="446" font-family="Arial, sans-serif" font-size="24" font-weight="900" fill="#151a18">wildanisme.com/tools/link-to-qr-code</text>
  <rect x="820" y="150" width="220" height="220" rx="8" fill="#f7fbf8" stroke="#151a18" stroke-width="8"/>
  <rect x="850" y="180" width="54" height="54" fill="#151a18"/>
  <rect x="956" y="180" width="54" height="54" fill="#151a18"/>
  <rect x="850" y="286" width="54" height="54" fill="#151a18"/>
  <rect x="870" y="200" width="14" height="14" fill="#f7fbf8"/>
  <rect x="976" y="200" width="14" height="14" fill="#f7fbf8"/>
  <rect x="870" y="306" width="14" height="14" fill="#f7fbf8"/>
  <rect x="930" y="250" width="24" height="24" fill="#151a18"/>
  <rect x="970" y="270" width="24" height="24" fill="#151a18"/>
  <rect x="912" y="308" width="24" height="24" fill="#151a18"/>
  <rect x="995" y="326" width="18" height="18" fill="#151a18"/>
  <text x="825" y="430" font-family="Arial, sans-serif" font-size="42" font-weight="900" fill="#151a18">wildanisme</text>
</svg>
